<svg xmlns="http://www.w3.org/2000/svg" width="1920" height="1080" viewBox="0 0 1330 716">
  <defs>
    <filter id="glow" x="-20%" y="-20%" width="140%" height="140%">
      <feGaussianBlur stdDeviation="2.5" result="coloredBlur" />
      <feMerge>
        <feMergeNode in="coloredBlur" />
        <feMergeNode in="SourceGraphic" />
      </feMerge>
    </filter>
  </defs>

  <rect width="100%" height="100%" fill="none" />

  <g
    stroke="#FFFFFF"
    fill="none"
    stroke-width="4"
    stroke-linecap="round"
    stroke-linejoin="round"
    filter="url(#glow)"
  >
    <g id="body">
      <path d="
        M 242 56
        C 236 66, 234 86, 233 112
        C 231 168, 229 224, 226 282
        C 224 322, 221 360, 220 399
        C 219 428, 219 448, 219 460
        C 219 467, 221 473, 225 476
        C 229 479, 236 479, 243 479
        L 288 479
        C 291 479, 293 477, 293 473
        L 293 453
        C 293 450, 295 449, 298 449
        L 482 449
        C 485 449, 487 450, 487 453
        L 487 473
        C 487 477, 489 479, 492 479
        L 530 479
        C 538 479, 544 478, 548 474
        C 552 470, 554 464, 554 456
        C 554 440, 553 416, 551 384
        C 548 330, 545 277, 541 223
        C 538 176, 535 134, 531 100
        C 528 78, 524 64, 518 56
        C 512 48, 500 45, 482 45
        L 278 45
        C 260 45, 248 48, 242 56
        Z

        M 219 181
        C 210 180, 203 183, 199 191
        C 196 197, 194 209, 194 226
        C 194 238, 195 246, 198 251
        C 202 256, 209 258, 218 257

        M 554 181
        C 563 180, 570 183, 574 191
        C 577 197, 579 209, 579 226
        C 579 238, 578 246, 575 251
        C 571 256, 564 258, 555 257
      " />
    </g>

    <g id="headlights">
      <circle cx="258" cy="339" r="29" />
      <circle cx="258" cy="339" r="13" />
      <circle cx="516" cy="339" r="29" />
      <circle cx="516" cy="339" r="13" />
    </g>
  </g>
</svg>
