<svg xmlns="http://www.w3.org/2000/svg" width="1080" height="1920" viewBox="0 0 1080 1920">

<defs>
  <filter id="glow" x="-20%" y="-20%" width="140%" height="140%">
    <feGaussianBlur stdDeviation="2.5" result="coloredBlur"/>
    <feMerge>
      <feMergeNode in="coloredBlur"/>
      <feMergeNode in="SourceGraphic"/>
    </feMerge>
  </filter>
</defs>

<rect width="100%" height="100%" fill="none"/>
<g stroke="#FFFFFF" fill="none" stroke-linecap="round" stroke-linejoin="round" filter="url(#glow)">
  <g transform="translate(1080,0) scale(-1,1)">
  
<path d="M190 1140 L242 930 Q270 822 356 752 L710 752 Q800 758 862 830 L920 898 L950 1028 Q962 1098 936 1164 Q904 1230 828 1238 L286 1238 Q228 1234 198 1200 Q168 1168 190 1140 Z" stroke-width="8"/>
<path d="M360 760 L360 1144" stroke-width="5" opacity="0.55"/>
<path d="M606 760 L606 1134" stroke-width="4" opacity="0.35"/>
<path d="M750 776 L750 1108" stroke-width="4" opacity="0.35"/>
<path d="M238 928 Q252 844 326 792 L360 792 L360 928 Z" stroke-width="5" opacity="0.7"/>
<path d="M782 932 L922 964 Q960 974 966 1014 L966 1084 Q956 1124 908 1128 L782 1126 Z" stroke-width="6" opacity="0.75"/>
<circle cx="846" cy="982" r="40" stroke-width="8"/><circle cx="876" cy="982" r="40" stroke-width="8" opacity="0"/>
<path d="M818 1028 L928 1044" stroke-width="4" opacity="0.45"/>

<circle cx="316" cy="1238" r="48" stroke-width="7" opacity="0.95"/><circle cx="316" cy="1238" r="26.400000000000002" stroke-width="4" opacity="0.55"/>
<circle cx="808" cy="1232" r="58" stroke-width="7" opacity="0.95"/><circle cx="808" cy="1232" r="31.900000000000002" stroke-width="4" opacity="0.55"/>
<path d="M158 1290 L996 1290" stroke-width="4" opacity="0.25"/>
</g>
</g>
<g fill="#FFFFFF" opacity="0.20" font-family="Arial, Helvetica, sans-serif" font-size="30">
  <text x="540" y="1760" text-anchor="middle">rivian · front_right</text>
</g>
</svg>