<svg xmlns="http://www.w3.org/2000/svg" width="1920" height="1080" viewBox="0 0 1330 730">
  <defs>
    <filter id="glow" x="-20%" y="-20%" width="140%" height="140%">
      <feGaussianBlur stdDeviation="2.6" result="coloredBlur"/>
      <feMerge>
        <feMergeNode in="coloredBlur"/>
        <feMergeNode in="SourceGraphic"/>
      </feMerge>
    </filter>
  </defs>

  <rect width="100%" height="100%" fill="none"/>

  <g
    fill="none"
    stroke="#FFFFFF"
    stroke-linecap="round"
    stroke-linejoin="round"
    filter="url(#glow)"
    transform="translate(80 110)"
  >
    <path
      d="M84 450
         Q88 388 114 332
         Q140 272 194 244
         Q230 224 292 224
         H734
         Q802 226 858 260
         Q934 306 988 384
         Q1038 456 1040 514
         Q1036 550 1010 570
         Q980 590 928 592
         H266
         Q188 592 140 572
         Q90 550 84 450 Z"
      stroke-width="7"
    />

    <path
      d="M206 336
         Q256 252 356 224"
      stroke-width="4.5"
      opacity="0.72"
    />

    <path
      d="M360 224
         Q444 184 592 182
         Q726 180 822 214"
      stroke-width="4"
      opacity="0.5"
    />

    <path
      d="M312 236
         Q306 308 306 512"
      stroke-width="5"
      opacity="0.76"
    />

    <path
      d="M782 242
         Q786 344 786 540"
      stroke-width="4.5"
      opacity="0.64"
    />

    <path
      d="M902 330
         Q914 382 914 516"
      stroke-width="4"
      opacity="0.44"
    />

    <path
      d="M168 396
         Q192 304 250 266
         H312
         V430
         H166 Z"
      stroke-width="5"
      opacity="0.78"
    />

    <path
      d="M332 266
         L430 252
         Q514 242 612 242
         Q706 242 774 254
         Q858 268 924 352"
      stroke-width="4.5"
      opacity="0.42"
    />

    <path
      d="M840 408
         Q878 360 944 364
         Q992 368 1012 404
         Q1026 430 1022 470
         Q1012 516 966 526
         H852"
      stroke-width="5.5"
      opacity="0.84"
    />

    <circle cx="918" cy="430" r="28" stroke-width="6.2" opacity="0.92"/>
    <path d="M876 486 L980 496" stroke-width="4" opacity="0.4"/>

    <path
      d="M172 522
         Q198 482 244 482
         Q290 482 316 522"
      stroke-width="5"
      opacity="0.56"
    />

    <path
      d="M688 528
         Q726 466 796 466
         Q866 466 906 528"
      stroke-width="5.5"
      opacity="0.56"
    />

    <circle cx="244" cy="590" r="74" stroke-width="7" opacity="0.96"/>
    <circle cx="244" cy="590" r="38" stroke-width="4" opacity="0.58"/>
    <circle cx="784" cy="590" r="88" stroke-width="7" opacity="0.96"/>
    <circle cx="784" cy="590" r="44" stroke-width="4" opacity="0.58"/>

    <path
      d="M128 618
         H1034"
      stroke-width="3.5"
      opacity="0.24"
    />
  </g>
</svg>
