<svg xmlns="http://www.w3.org/2000/svg" width="1080" height="1920" viewBox="0 0 1080 1920">
  <defs>
    <filter id="glowPreview" x="-20%" y="-20%" width="140%" height="140%">
      <feGaussianBlur stdDeviation="3" result="coloredBlur" />
      <feMerge>
        <feMergeNode in="coloredBlur" />
        <feMergeNode in="SourceGraphic" />
      </feMerge>
    </filter>
  </defs>

  <rect width="100%" height="100%" fill="#07111d" />

  <g
    stroke="#38BDF8"
    fill="none"
    stroke-linecap="round"
    stroke-linejoin="round"
    filter="url(#glowPreview)"
  >
    <path
      d="M156 1128
         L186 1014
         Q210 918 274 844
         Q334 774 418 748
         L764 748
         Q866 752 922 808
         L960 852
         Q986 884 996 952
         L1008 1054
         Q1014 1130 990 1186
         Q960 1252 890 1252
         L824 1252
         Q804 1184 742 1184
         L352 1184
         Q292 1184 266 1252
         L220 1252
         Q166 1252 144 1214
         Q122 1176 156 1128 Z"
      stroke-width="8"
    />

    <path
      d="M222 956
         Q234 874 292 816
         Q344 766 404 766
         L414 766
         L414 948
         Q378 952 338 982
         Q278 1028 234 1114
         L196 1114
         Q200 1038 222 956 Z"
      stroke-width="5"
      opacity="0.86"
    />

    <path d="M430 756 L430 1174" stroke-width="4.5" opacity="0.72" />
    <path d="M642 756 L642 1174" stroke-width="4.5" opacity="0.62" />
    <path d="M820 772 L820 1174" stroke-width="4.5" opacity="0.55" />

    <path d="M270 1138 L828 1138" stroke-width="4" opacity="0.54" />
    <path d="M274 1248 L324 1146" stroke-width="4" opacity="0.48" />
    <path d="M770 1146 L820 1248" stroke-width="4" opacity="0.48" />

    <path d="M208 956 L282 956" stroke-width="4.5" opacity="0.58" />
    <path d="M196 1114 L252 1114" stroke-width="4.5" opacity="0.44" />
    <path d="M944 860 L944 1198" stroke-width="4.5" opacity="0.44" />

    <circle cx="314" cy="1252" r="50" stroke-width="7" opacity="0.96" />
    <circle cx="314" cy="1252" r="26" stroke-width="4" opacity="0.6" />
    <circle cx="792" cy="1252" r="50" stroke-width="7" opacity="0.96" />
    <circle cx="792" cy="1252" r="26" stroke-width="4" opacity="0.6" />

    <path d="M138 1308 L1012 1308" stroke-width="4" opacity="0.22" />
  </g>

  <g fill="#E2E8F0" font-family="Arial, Helvetica, sans-serif" font-size="34" opacity="0.9">
    <text x="540" y="1668" text-anchor="middle">Photo-based draft contour</text>
    <text x="540" y="1714" text-anchor="middle">Rivian left side</text>
  </g>
</svg>
