<svg xmlns="http://www.w3.org/2000/svg" width="1080" height="1920" viewBox="0 0 1080 1920">

<defs>
  <filter id="glow" x="-20%" y="-20%" width="140%" height="140%">
    <feGaussianBlur stdDeviation="2.5" result="coloredBlur"/>
    <feMerge>
      <feMergeNode in="coloredBlur"/>
      <feMergeNode in="SourceGraphic"/>
    </feMerge>
  </filter>
</defs>

<rect width="100%" height="100%" fill="none"/>
<g stroke="#FFFFFF" fill="none" stroke-linecap="round" stroke-linejoin="round" filter="url(#glow)">
  
<path d="M192 1134 L224 932 Q248 822 338 760 L694 760 Q796 768 864 840 L926 912 L956 1034 Q970 1106 942 1174 Q908 1240 830 1246 L284 1246 Q224 1242 194 1204 Q164 1166 192 1134 Z" stroke-width="8"/>
<path d="M338 768 L338 1138" stroke-width="5" opacity="0.55"/>
<path d="M596 768 L596 1138" stroke-width="4" opacity="0.35"/>
<path d="M742 780 L742 1118" stroke-width="4" opacity="0.35"/>
<path d="M814 850 L932 898 L958 1024" stroke-width="6" opacity="0.75"/>
<path d="M806 864 L806 1218" stroke-width="10" opacity="0.9"/>
<path d="M874 920 L950 962" stroke-width="4" opacity="0.45"/>

<circle cx="300" cy="1246" r="48" stroke-width="7" opacity="0.95"/><circle cx="300" cy="1246" r="26.400000000000002" stroke-width="4" opacity="0.55"/>
<circle cx="812" cy="1240" r="58" stroke-width="7" opacity="0.95"/><circle cx="812" cy="1240" r="31.900000000000002" stroke-width="4" opacity="0.55"/>
<path d="M160 1296 L1000 1296" stroke-width="4" opacity="0.25"/>
</g>
<g fill="#FFFFFF" opacity="0.20" font-family="Arial, Helvetica, sans-serif" font-size="30">
  <text x="540" y="1760" text-anchor="middle">rivian · rear_left</text>
</g>
</svg>