<svg xmlns="http://www.w3.org/2000/svg" width="1080" height="1920" viewBox="0 0 1080 1920">

<defs>
  <filter id="glow" x="-20%" y="-20%" width="140%" height="140%">
    <feGaussianBlur stdDeviation="2.5" result="coloredBlur"/>
    <feMerge>
      <feMergeNode in="coloredBlur"/>
      <feMergeNode in="SourceGraphic"/>
    </feMerge>
  </filter>
</defs>

<rect width="100%" height="100%" fill="none"/>
<g stroke="#FFFFFF" fill="none" stroke-linecap="round" stroke-linejoin="round" filter="url(#glow)">
  <path d="M382 1234 Q338 1194 338 1124 L338 790 Q338 694 404 646 Q466 604 540 604 Q614 604 676 646 Q742 694 742 790 L742 1124 Q742 1194 698 1234 Q660 1270 602 1272 L478 1272 Q420 1270 382 1234 Z" stroke-width="8"/>
<path d="M540 654 L540 1240" stroke-width="5" opacity="0.6"/><path d="M430 790 L650 790" stroke-width="4" opacity="0.35"/>
<path d="M374 684 L374 1214" stroke-width="10"/><path d="M706 684 L706 1214" stroke-width="10"/>
<path d="M428 1214 L652 1214" stroke-width="8" opacity="0.6"/>
<circle cx="438" cy="1272" r="24" stroke-width="7" opacity="0.95"/><circle cx="438" cy="1272" r="13.200000000000001" stroke-width="4" opacity="0.55"/>
<circle cx="642" cy="1272" r="24" stroke-width="7" opacity="0.95"/><circle cx="642" cy="1272" r="13.200000000000001" stroke-width="4" opacity="0.55"/>
<path d="M322 1312 L758 1312" stroke-width="4" opacity="0.25"/>
</g>
<g fill="#FFFFFF" opacity="0.20" font-family="Arial, Helvetica, sans-serif" font-size="30">
  <text x="540" y="1760" text-anchor="middle">rivian · rear</text>
</g>
</svg>