<svg xmlns="http://www.w3.org/2000/svg" width="1920" height="1080" viewBox="0 0 1330 716">
  <defs>
    <filter id="glow" x="-20%" y="-20%" width="140%" height="140%">
      <feGaussianBlur stdDeviation="2.5" result="coloredBlur" />
      <feMerge>
        <feMergeNode in="coloredBlur" />
        <feMergeNode in="SourceGraphic" />
      </feMerge>
    </filter>
  </defs>

  <rect width="100%" height="100%" fill="none" />

  <g
    stroke="#FFFFFF"
    fill="none"
    stroke-width="4"
    stroke-linecap="round"
    stroke-linejoin="round"
    filter="url(#glow)"
  >
    <g id="body" transform="translate(1330 0) scale(-1 1)">
      <path d="
        M 149 510
        C 149 472, 150 447, 156 428
        C 163 405, 185 389, 212 371
        C 231 357, 244 335, 255 315
        C 284 264, 316 212, 351 153
        C 370 123, 407 103, 459 95
        C 575 84, 933 84, 1172 83
        C 1218 83, 1245 95, 1250 126
        C 1256 179, 1252 258, 1244 360
        C 1241 406, 1238 456, 1232 506
        C 1227 530, 1206 540, 1177 541
        C 1147 542, 1116 543, 1076 543
        C 1058 543, 1048 548, 1042 563
        C 1032 590, 1014 603, 984 605
        C 963 605, 947 600, 935 585
        C 928 576, 923 562, 920 548
        C 740 548, 553 548, 368 548
        C 362 570, 350 586, 331 598
        C 314 608, 294 612, 273 610
        C 251 607, 235 597, 223 580
        C 214 567, 208 555, 204 543
        C 190 541, 179 539, 170 534
        C 156 526, 149 519, 149 510
        Z" />
    </g>
  </g>
</svg>
