<svg xmlns="http://www.w3.org/2000/svg" width="1080" height="1920" viewBox="0 0 1080 1920">

<defs>
  <filter id="glow" x="-20%" y="-20%" width="140%" height="140%">
    <feGaussianBlur stdDeviation="2.5" result="coloredBlur"/>
    <feMerge>
      <feMergeNode in="coloredBlur"/>
      <feMergeNode in="SourceGraphic"/>
    </feMerge>
  </filter>
</defs>

<rect width="100%" height="100%" fill="none"/>
<g stroke="#FFFFFF" fill="none" stroke-linecap="round" stroke-linejoin="round" filter="url(#glow)">
  <path d="M396 1210 Q356 1174 356 1108 L356 826 Q356 742 418 700 Q470 664 540 664 Q610 664 662 700 Q724 742 724 826 L724 1108 Q724 1174 684 1210 Q650 1240 596 1242 L484 1242 Q430 1240 396 1210 Z" stroke-width="8"/>
<path d="M540 704 L540 1216" stroke-width="5" opacity="0.6"/><path d="M424 812 L656 812" stroke-width="4" opacity="0.35"/>
<path d="M382 742 L382 1188" stroke-width="10"/><path d="M698 742 L698 1188" stroke-width="10"/>
<path d="M432 1188 L648 1188" stroke-width="8" opacity="0.6"/>
<circle cx="446" cy="1242" r="22" stroke-width="7" opacity="0.95"/><circle cx="446" cy="1242" r="12.100000000000001" stroke-width="4" opacity="0.55"/>
<circle cx="634" cy="1242" r="22" stroke-width="7" opacity="0.95"/><circle cx="634" cy="1242" r="12.100000000000001" stroke-width="4" opacity="0.55"/>
<path d="M340 1280 L740 1280" stroke-width="4" opacity="0.25"/>
</g>
<g fill="#FFFFFF" opacity="0.20" font-family="Arial, Helvetica, sans-serif" font-size="30">
  <text x="540" y="1760" text-anchor="middle">sprinter · rear</text>
</g>
</svg>