<svg xmlns="http://www.w3.org/2000/svg" width="1080" height="1920" viewBox="0 0 1080 1920">

<defs>
  <filter id="glow" x="-20%" y="-20%" width="140%" height="140%">
    <feGaussianBlur stdDeviation="2.5" result="coloredBlur"/>
    <feMerge>
      <feMergeNode in="coloredBlur"/>
      <feMergeNode in="SourceGraphic"/>
    </feMerge>
  </filter>
</defs>

<rect width="100%" height="100%" fill="none"/>
<g stroke="#FFFFFF" fill="none" stroke-linecap="round" stroke-linejoin="round" filter="url(#glow)">
  
<path d="M238 1128 L266 950 Q286 842 364 792 L706 792 Q798 798 854 860 L904 916 L930 1022 Q942 1090 916 1152 Q890 1214 820 1222 L320 1222 Q260 1220 234 1186 Q208 1152 238 1128 Z" stroke-width="8"/>
<path d="M364 800 L364 1120" stroke-width="5" opacity="0.55"/>
<path d="M592 800 L592 1120" stroke-width="4" opacity="0.35"/>
<path d="M708 804 L708 1102" stroke-width="4" opacity="0.35"/>
<path d="M792 870 L906 910 L930 1020" stroke-width="6" opacity="0.75"/>
<path d="M786 892 L786 1186" stroke-width="10" opacity="0.9"/>
<path d="M846 930 L928 972" stroke-width="4" opacity="0.45"/>

<circle cx="336" cy="1222" r="44" stroke-width="7" opacity="0.95"/><circle cx="336" cy="1222" r="24.200000000000003" stroke-width="4" opacity="0.55"/>
<circle cx="788" cy="1218" r="54" stroke-width="7" opacity="0.95"/><circle cx="788" cy="1218" r="29.700000000000003" stroke-width="4" opacity="0.55"/>
<path d="M200 1272 L980 1272" stroke-width="4" opacity="0.25"/>
</g>
<g fill="#FFFFFF" opacity="0.20" font-family="Arial, Helvetica, sans-serif" font-size="30">
  <text x="540" y="1760" text-anchor="middle">sprinter · rear_left</text>
</g>
</svg>