<svg xmlns="http://www.w3.org/2000/svg" width="1080" height="1920" viewBox="0 0 1080 1920">

<defs>
  <filter id="glow" x="-20%" y="-20%" width="140%" height="140%">
    <feGaussianBlur stdDeviation="2.5" result="coloredBlur"/>
    <feMerge>
      <feMergeNode in="coloredBlur"/>
      <feMergeNode in="SourceGraphic"/>
    </feMerge>
  </filter>
</defs>

<rect width="100%" height="100%" fill="none"/>
<g stroke="#FFFFFF" fill="none" stroke-linecap="round" stroke-linejoin="round" filter="url(#glow)">
  <g transform="translate(1080,0) scale(-1,1)">
  <path d="M205 1088 L250 942 Q272 840 358 782 L760 782 Q840 792 870 840 L895 887 L900 1032 Q900 1112 875 1152 Q848 1185 796 1185 L284 1185 Q238 1185 214 1155 Q190 1125 205 1088 Z" stroke-width="8"/>
<path d="M285 1183 L324 1110 L742 1110 L790 1183" stroke-width="4" opacity="0.55"/>
<path d="M404 790 L404 1108"/><path d="M622 790 L622 1108"/><path d="M745 800 L745 1106"/><path d="M303 942 L365 942"/><path d="M788 846 L847 846"/><path d="M286 1110 L790 1110" stroke-width="4" opacity="0.5"/>
<path d="M264 940 Q272 865 352 820 L390 820 L390 942 Z" stroke-width="5" opacity="0.75"/>
<circle cx="340" cy="1185" r="42" stroke-width="7" opacity="0.95"/><circle cx="340" cy="1185" r="23.1" stroke-width="4" opacity="0.55"/>
<circle cx="762" cy="1185" r="42" stroke-width="7" opacity="0.95"/><circle cx="762" cy="1185" r="23.1" stroke-width="4" opacity="0.55"/>
<path d="M180 1238 L920 1238" stroke-width="4" opacity="0.25"/>
</g>
</g>
<g fill="#FFFFFF" opacity="0.20" font-family="Arial, Helvetica, sans-serif" font-size="30">
  <text x="540" y="1760" text-anchor="middle">sprinter · right_side</text>
</g>
</svg>