<svg xmlns="http://www.w3.org/2000/svg" width="1080" height="1920" viewBox="0 0 1080 1920">

<defs>
  <filter id="glow" x="-20%" y="-20%" width="140%" height="140%">
    <feGaussianBlur stdDeviation="2.5" result="coloredBlur"/>
    <feMerge>
      <feMergeNode in="coloredBlur"/>
      <feMergeNode in="SourceGraphic"/>
    </feMerge>
  </filter>
</defs>

<rect width="100%" height="100%" fill="none"/>
<g stroke="#FFFFFF" fill="none" stroke-linecap="round" stroke-linejoin="round" filter="url(#glow)">
  
<path d="M238 1138 L274 948 Q298 850 380 812 L724 812 Q798 820 848 876 L892 926 L916 1026 Q924 1090 902 1148 Q876 1204 816 1214 L336 1214 Q276 1212 248 1184 Q220 1154 238 1138 Z" stroke-width="8"/>
<path d="M384 818 L384 1136" stroke-width="5" opacity="0.55"/>
<path d="M640 818 L640 1124" stroke-width="4" opacity="0.35"/>
<path d="M748 832 L748 1106" stroke-width="4" opacity="0.35"/>
<path d="M276 946 Q288 868 354 832 L384 832 L384 946 Z" stroke-width="5" opacity="0.7"/>
<path d="M766 924 L894 952 Q930 964 936 996 L936 1058 Q924 1094 882 1098 L766 1096 Z" stroke-width="6" opacity="0.75"/>
<path d="M784 984 L904 1002" stroke-width="4" opacity="0.45"/>

<circle cx="348" cy="1214" r="45" stroke-width="7" opacity="0.95"/><circle cx="348" cy="1214" r="24.750000000000004" stroke-width="4" opacity="0.55"/>
<circle cx="782" cy="1212" r="54" stroke-width="7" opacity="0.95"/><circle cx="782" cy="1212" r="29.700000000000003" stroke-width="4" opacity="0.55"/>
<path d="M202 1264 L970 1264" stroke-width="4" opacity="0.25"/>
</g>
<g fill="#FFFFFF" opacity="0.20" font-family="Arial, Helvetica, sans-serif" font-size="30">
  <text x="540" y="1760" text-anchor="middle">boxer · front_left</text>
</g>
</svg>