<svg xmlns="http://www.w3.org/2000/svg" width="1080" height="1920" viewBox="0 0 1080 1920">

<defs>
  <filter id="glow" x="-20%" y="-20%" width="140%" height="140%">
    <feGaussianBlur stdDeviation="2.5" result="coloredBlur"/>
    <feMerge>
      <feMergeNode in="coloredBlur"/>
      <feMergeNode in="SourceGraphic"/>
    </feMerge>
  </filter>
</defs>

<rect width="100%" height="100%" fill="none"/>
<g stroke="#FFFFFF" fill="none" stroke-linecap="round" stroke-linejoin="round" filter="url(#glow)">
  <g transform="translate(1080,0) scale(-1,1)">
  
<path d="M244 1130 L270 952 Q290 852 368 816 L708 816 Q796 824 848 884 L892 934 L918 1028 Q930 1090 904 1150 Q876 1210 812 1218 L326 1218 Q268 1216 240 1186 Q212 1154 244 1130 Z" stroke-width="8"/>
<path d="M370 824 L370 1118" stroke-width="5" opacity="0.55"/>
<path d="M616 824 L616 1120" stroke-width="4" opacity="0.35"/>
<path d="M720 832 L720 1108" stroke-width="4" opacity="0.35"/>
<path d="M788 888 L898 924 L920 1026" stroke-width="6" opacity="0.75"/>
<path d="M782 900 L782 1190" stroke-width="10" opacity="0.9"/>
<path d="M842 942 L918 980" stroke-width="4" opacity="0.45"/>

<circle cx="338" cy="1218" r="45" stroke-width="7" opacity="0.95"/><circle cx="338" cy="1218" r="24.750000000000004" stroke-width="4" opacity="0.55"/>
<circle cx="784" cy="1216" r="54" stroke-width="7" opacity="0.95"/><circle cx="784" cy="1216" r="29.700000000000003" stroke-width="4" opacity="0.55"/>
<path d="M206 1268 L974 1268" stroke-width="4" opacity="0.25"/>
</g>
</g>
<g fill="#FFFFFF" opacity="0.20" font-family="Arial, Helvetica, sans-serif" font-size="30">
  <text x="540" y="1760" text-anchor="middle">boxer · rear_right</text>
</g>
</svg>