<svg xmlns="http://www.w3.org/2000/svg" width="1080" height="1920" viewBox="0 0 1080 1920">

<defs>
  <filter id="glow" x="-20%" y="-20%" width="140%" height="140%">
    <feGaussianBlur stdDeviation="2.5" result="coloredBlur"/>
    <feMerge>
      <feMergeNode in="coloredBlur"/>
      <feMergeNode in="SourceGraphic"/>
    </feMerge>
  </filter>
</defs>

<rect width="100%" height="100%" fill="none"/>
<g stroke="#FFFFFF" fill="none" stroke-linecap="round" stroke-linejoin="round" filter="url(#glow)">
  <path d="M392 1210 Q350 1172 350 1104 L350 838 Q350 748 412 708 Q468 672 540 672 Q612 672 668 708 Q730 748 730 838 L730 1104 Q730 1172 688 1210 Q652 1242 596 1244 L484 1244 Q428 1242 392 1210 Z" stroke-width="8"/>
<path d="M540 716 L540 1218" stroke-width="5" opacity="0.6"/><path d="M420 824 L660 824" stroke-width="4" opacity="0.35"/>
<path d="M376 744 L376 1192" stroke-width="10"/><path d="M704 744 L704 1192" stroke-width="10"/>
<path d="M430 1190 L650 1190" stroke-width="8" opacity="0.6"/>
<circle cx="442" cy="1244" r="22" stroke-width="7" opacity="0.95"/><circle cx="442" cy="1244" r="12.100000000000001" stroke-width="4" opacity="0.55"/>
<circle cx="638" cy="1244" r="22" stroke-width="7" opacity="0.95"/><circle cx="638" cy="1244" r="12.100000000000001" stroke-width="4" opacity="0.55"/>
<path d="M334 1282 L746 1282" stroke-width="4" opacity="0.25"/>
</g>
<g fill="#FFFFFF" opacity="0.20" font-family="Arial, Helvetica, sans-serif" font-size="30">
  <text x="540" y="1760" text-anchor="middle">boxer · rear</text>
</g>
</svg>